<svg width="169" height="174" viewBox="0 0 169 174" fill="none" xmlns="http://www.w3.org/2000/svg">
<g opacity="0.5">
<path d="M91.8867 0L91.8867 173" stroke="#E3C08D"/>
<path d="M83.625 0L83.625 173" stroke="#E3C08D"/>
<path d="M75.3633 0L75.3633 173" stroke="#E3C08D"/>
<path d="M67.1016 0L67.1016 173" stroke="#E3C08D"/>
<path d="M58.8359 0L58.8359 173" stroke="#E3C08D"/>
<path d="M50.5742 0L50.5742 173" stroke="#E3C08D"/>
<path d="M42.3125 0L42.3125 173" stroke="#E3C08D"/>
<path d="M34.0508 0L34.0508 173" stroke="#E3C08D"/>
<path d="M25.7891 0L25.7891 173" stroke="#E3C08D"/>
<path d="M17.5273 0L17.5273 173" stroke="#E3C08D"/>
<path d="M9.26562 0L9.26563 173" stroke="#E3C08D"/>
<path d="M1 0L1 173" stroke="#E3C08D"/>
<path d="M169 173L91.8852 173" stroke="#E3C08D"/>
<path d="M169 164.696L91.8852 164.696" stroke="#E3C08D"/>
<path d="M169 156.392L91.8852 156.392" stroke="#E3C08D"/>
<path d="M169 148.088L91.8852 148.088" stroke="#E3C08D"/>
<path d="M169 139.784L91.8852 139.784" stroke="#E3C08D"/>
<path d="M169 131.48L91.8852 131.48" stroke="#E3C08D"/>
<path d="M169 123.176L91.8852 123.176" stroke="#E3C08D"/>
<path d="M169 114.872L91.8852 114.872" stroke="#E3C08D"/>
<path d="M169 106.568L91.8852 106.568" stroke="#E3C08D"/>
<path d="M169 98.264L91.8852 98.264" stroke="#E3C08D"/>
<path d="M169 89.9601L91.8852 89.9601" stroke="#E3C08D"/>
<path d="M169 81.656L91.8852 81.656" stroke="#E3C08D"/>
</g>
</svg>
